# File created by Blade
# Date/Time:  Wed Apr 08 17:17:01 2015
# Frame Rate: 120.000 fps
#------------------------------------------------------
:FULLY-SPECIFIED
:DEGREES
1173
root 8.545504 37.455139 6.210401 172.748331 -39.776701 -149.591770
Spine 9.732805 -3.857710 -1.159174
Head -3.152056 0.502740 21.883379
LeftShoulder -6.820756 14.716446 19.732452
LeftArm 16.616965 30.231554 -74.457100
LeftForeArm 31.347742 -0.000000 26.100602
LeftHand -9.299673 -0.000000 -21.312614
LeftHandThumb1 -26.253704 0.000000 33.147579
RightShoulder -42.451145 -48.931081 33.564955
RightArm 47.809317 -20.937090 63.175040
RightForeArm 27.239736 -0.000000 5.774018
RightHand -6.130765 -0.000000 9.579228
RightHandThumb1 -24.326973 -0.000000 -32.862282
LeftUpLeg -26.775573 46.009552 2.717175
LeftLeg 20.471134 -0.000000 -0.000000
LeftFoot -19.716425 2.824599 -17.112164
LeftToeBase 15.473259 -0.000000 -0.000000
RightUpLeg 4.877532 -11.210267 -16.903176
RightLeg 144.203113 -0.000000 -0.000000
RightFoot 39.710274 9.335847 19.716510
RightToeBase 8.573339 -0.000000 -0.000000
1174
root 8.527948 37.454545 6.233392 173.020883 -39.559003 -149.826261
Spine 9.684347 -3.950912 -1.221729
Head -3.093577 0.688894 21.872985
LeftShoulder -6.804238 14.717534 19.726084
LeftArm 16.713163 30.291513 -74.334270
LeftForeArm 31.406397 -0.000000 26.155879
LeftHand -9.265924 -0.000000 -21.341660
LeftHandThumb1 -26.253704 0.000000 33.147579
RightShoulder -42.423281 -48.950892 33.500833
RightArm 47.903869 -21.189552 62.912836
RightForeArm 27.265099 -0.000000 5.816042
RightHand -6.238917 -0.000000 9.694477
RightHandThumb1 -24.326973 -0.000000 -32.862282
LeftUpLeg -26.873983 46.251206 2.461985
LeftLeg 20.483482 -0.000000 -0.000000
LeftFoot -19.710337 2.649653 -17.293001
LeftToeBase 15.515203 -0.000000 -0.000000
RightUpLeg 4.891703 -11.257990 -16.810502
RightLeg 144.202248 -0.000000 -0.000000
RightFoot 39.609869 9.113510 19.825021
RightToeBase 8.729383 -0.000000 -0.000000
1175
root 8.510707 37.453353 6.253911 173.258904 -39.370839 -150.033568
Spine 9.649592 -4.034186 -1.254531
Head -3.047177 0.829544 21.845555
LeftShoulder -6.782487 14.660054 19.736810
LeftArm 16.800126 30.382502 -74.230395
LeftForeArm 31.452544 -0.000000 26.174710
LeftHand -9.341804 -0.000000 -21.314446
LeftHandThumb1 -26.253704 0.000000 33.147579
RightShoulder -42.360168 -48.985385 33.416661
RightArm 47.923586 -21.407825 62.720118
RightForeArm 27.350011 -0.000000 5.888945
RightHand -6.307636 -0.000000 9.804066
RightHandThumb1 -24.326973 -0.000000 -32.862282
LeftUpLeg -26.970148 46.481270 2.234358
LeftLeg 20.522878 -0.000000 -0.000000
LeftFoot -19.725337 2.428796 -17.473999
LeftToeBase 15.644281 -0.000000 -0.000000
RightUpLeg 4.938910 -11.334846 -16.718066
RightLeg 144.177998 -0.000000 -0.000000
RightFoot 39.605668 8.834296 20.038545
RightToeBase 8.478458 -0.000000 -0.000000
1176
root 8.491793 37.451640 6.274476 173.495931 -39.198294 -150.224170
Spine 9.591940 -4.129074 -1.268423
Head -2.990470 0.960496 21.792926
LeftShoulder -6.773036 14.632058 19.751673
LeftArm 16.903072 30.421216 -74.153207
LeftForeArm 31.512508 -0.000000 26.184962
LeftHand -9.334714 -0.000000 -21.225665
LeftHandThumb1 -26.253704 0.000000 33.147579
RightShoulder -42.311441 -49.023401 33.350796
RightArm 47.960311 -21.625167 62.496157
RightForeArm 27.414544 0.000000 5.940510
RightHand -6.364519 -0.000000 9.905803
RightHandThumb1 -24.326973 -0.000000 -32.862282
LeftUpLeg -27.095733 46.700589 1.998548
LeftLeg 20.579830 -0.000000 -0.000000
LeftFoot -19.700581 2.206011 -17.583960
LeftToeBase 15.579361 -0.000000 -0.000000
RightUpLeg 5.002426 -11.413690 -16.632428
RightLeg 144.107050 -0.000000 -0.000000
RightFoot 39.625578 8.712696 20.216472
RightToeBase 8.705827 -0.000000 -0.000000
1177
root 8.473357 37.450531 6.293624 173.715069 -39.052458 -150.385045
Spine 9.528769 -4.241101 -1.249172
Head -2.957767 1.057249 21.705591
LeftShoulder -6.754375 14.579621 19.760055
LeftArm 16.943657 30.358750 -74.141512
LeftForeArm 31.661509 -0.000000 26.202144
LeftHand -9.170729 -0.000000 -21.163440
LeftHandThumb1 -26.253704 0.000000 33.147579
RightShoulder -42.272651 -49.059399 33.296441
RightArm 47.958178 -21.771148 62.346822
RightForeArm 27.392910 0.000000 5.984132
RightHand -6.440607 -0.000000 10.085737
RightHandThumb1 -24.326973 -0.000000 -32.862282
LeftUpLeg -27.209253 46.840313 1.808352
LeftLeg 20.646041 -0.000000 -0.000000
LeftFoot -19.689588 2.009125 -17.696231
LeftToeBase 15.529459 -0.000000 -0.000000
RightUpLeg 5.065379 -11.536724 -16.516577
RightLeg 144.044468 -0.000000 -0.000000
RightFoot 39.567891 8.567444 20.370234
RightToeBase 8.822613 -0.000000 -0.000000
1178
root 8.457479 37.451287 6.310593 173.921711 -38.900535 -150.519161
Spine 9.453187 -4.307139 -1.213519
Head -2.935153 1.124336 21.632418
LeftShoulder -6.696744 14.544802 19.799142
LeftArm 16.978920 30.270499 -74.156214
LeftForeArm 31.848234 -0.000000 26.229899
LeftHand -9.088009 -0.000000 -20.949805
LeftHandThumb1 -26.253704 0.000000 33.147579
RightShoulder -42.381629 -49.121633 33.416715
RightArm 48.084444 -21.863735 62.122637
RightForeArm 27.510789 -0.000000 5.946357
RightHand -6.471429 -0.000000 10.371223
RightHandThumb1 -24.326973 -0.000000 -32.862282
LeftUpLeg -27.317299 46.968430 1.650095
LeftLeg 20.702202 -0.000000 -0.000000
LeftFoot -19.665386 1.822750 -17.766743
LeftToeBase 15.436035 -0.000000 -0.000000
RightUpLeg 5.113102 -11.633529 -16.355517
RightLeg 143.945560 -0.000000 -0.000000
RightFoot 39.673166 8.556070 20.469259
RightToeBase 9.085915 -0.000000 -0.000000
1179
root 8.442669 37.452945 6.328123 174.126883 -38.759235 -150.648112
Spine 9.380439 -4.379321 -1.170780
Head -2.923622 1.206098 21.566323
LeftShoulder -6.663305 14.495512 19.823220
LeftArm 17.011684 30.152256 -74.176386
LeftForeArm 32.109600 -0.000000 26.309708
LeftHand -9.185469 -0.000000 -21.074889
LeftHandThumb1 -26.253704 0.000000 33.147579
RightShoulder -42.385340 -49.131162 33.428192
RightArm 48.081119 -21.922700 62.033516
RightForeArm 27.589426 -0.000000 5.895567
RightHand -6.434731 -0.000000 10.503933
RightHandThumb1 -24.326973 -0.000000 -32.862282
LeftUpLeg -27.412566 47.050676 1.510194
LeftLeg 20.752374 -0.000000 -0.000000
LeftFoot -19.646330 1.639886 -17.873558
LeftToeBase 15.320824 -0.000000 -0.000000
RightUpLeg 5.146268 -11.717053 -16.170782
RightLeg 143.869051 -0.000000 -0.000000
RightFoot 39.740134 8.566392 20.517218
RightToeBase 8.857157 -0.000000 -0.000000
1180
root 8.427901 37.455855 6.342429 174.312277 -38.592406 -150.763260
Spine 9.320658 -4.426255 -1.120746
Head -2.943593 1.304111 21.502089
LeftShoulder -6.666915 14.475304 19.841706
LeftArm 17.084765 30.000273 -74.184223
LeftForeArm 31.611356 0.000000 26.518532
LeftHand -9.707850 0.000000 -21.333082
LeftHandThumb1 -26.253704 0.000000 33.147579
RightShoulder -42.419263 -49.118117 33.487369
RightArm 48.088554 -21.944680 61.910955
RightForeArm 27.500503 0.000000 5.875146
RightHand -6.553586 -0.000000 10.763248
RightHandThumb1 -24.326973 -0.000000 -32.862282
LeftUpLeg -27.476879 47.161888 1.398230
LeftLeg 20.783207 -0.000000 -0.000000
LeftFoot -19.641735 1.474258 -18.000581
LeftToeBase 15.206913 -0.000000 -0.000000
RightUpLeg 5.173357 -11.765539 -15.950882
RightLeg 143.813912 -0.000000 -0.000000
RightFoot 39.747561 8.600717 20.499348
RightToeBase 8.710335 -0.000000 -0.000000
1181
root 8.414821 37.459230 6.357585 174.519631 -38.415948 -150.894321
Spine 9.242454 -4.461688 -1.107460
Head -2.953381 1.433929 21.478813
LeftShoulder -6.640308 14.468914 19.922432
LeftArm 17.097811 29.863863 -74.259413
LeftForeArm 31.608200 -0.000000 26.635491
LeftHand -9.734396 -0.000000 -21.106403
LeftHandThumb1 -26.253704 0.000000 33.147579
RightShoulder -42.439741 -49.107023 33.559310
RightArm 48.101809 -21.944250 61.794097
RightForeArm 27.345390 -0.000000 5.861590
RightHand -6.660629 -0.000000 10.912740
RightHandThumb1 -24.326973 -0.000000 -32.862282
LeftUpLeg -27.548488 47.277041 1.270349
LeftLeg 20.805086 -0.000000 -0.000000
LeftFoot -19.629485 1.266636 -18.196401
LeftToeBase 15.117527 -0.000000 -0.000000
RightUpLeg 5.167403 -11.791438 -15.729122
RightLeg 143.780836 -0.000000 -0.000000
RightFoot 39.780888 8.659542 20.370594
RightToeBase 8.595192 -0.000000 -0.000000
1182
root 8.404611 37.464329 6.371753 174.716979 -38.215389 -151.005778
Spine 9.168576 -4.489232 -1.077516
Head -2.968844 1.557610 21.482992
LeftShoulder -6.616629 14.449338 19.992909
LeftArm 17.064634 29.750540 -74.325879
LeftForeArm 31.636986 -0.000000 26.761609
LeftHand -9.515584 0.000000 -20.675349
LeftHandThumb1 -26.253704 0.000000 33.147579
RightShoulder -42.430762 -49.087954 33.604639
RightArm 48.110681 -21.941616 61.694536
RightForeArm 27.228997 -0.000000 5.835958
RightHand -6.864082 -0.000000 11.317377
RightHandThumb1 -24.326973 -0.000000 -32.862282
LeftUpLeg -27.606274 47.396326 1.168816
LeftLeg 20.800145 -0.000000 -0.000000
LeftFoot -19.614871 1.138009 -18.321893
LeftToeBase 14.924317 -0.000000 -0.000000
RightUpLeg 5.135922 -11.764328 -15.452483
RightLeg 143.764347 -0.000000 -0.000000
RightFoot 39.829123 8.690831 20.334868
RightToeBase 8.093894 -0.000000 -0.000000
1183
root 8.395303 37.469607 6.385752 174.912423 -38.019071 -151.129308
Spine 9.099017 -4.508708 -1.079248
Head -3.012767 1.683694 21.522188
LeftShoulder -6.573235 14.367259 20.111788
LeftArm 16.987992 29.697461 -74.425784
LeftForeArm 31.725452 -0.000000 26.885018
LeftHand -9.418111 -0.000000 -20.719812
LeftHandThumb1 -26.253704 0.000000 33.147579
RightShoulder -42.425043 -49.084503 33.675956
RightArm 48.113125 -21.896210 61.640547
RightForeArm 27.122223 -0.000000 5.796813
RightHand -6.870152 0.000000 10.918572
RightHandThumb1 -24.326973 -0.000000 -32.862282
LeftUpLeg -27.648651 47.505669 1.059227
LeftLeg 20.773224 -0.000000 -0.000000
LeftFoot -19.580229 1.062901 -18.397068
LeftToeBase 14.725387 -0.000000 -0.000000
RightUpLeg 5.097442 -11.713528 -15.184577
RightLeg 143.734963 -0.000000 -0.000000
RightFoot 40.034372 8.733149 20.376934
RightToeBase 8.304510 -0.000000 -0.000000
